<svg width="867" height="202" viewBox="0 0 867 202" fill="none" xmlns="http://www.w3.org/2000/svg">
<path d="M7.2 78.8V60.72H16.64C30.72 60.72 35.36 56.72 35.36 42.32H54.4V158H31.52V78.8H7.2ZM93.145 101.04C93.145 126.96 102.265 140.88 119.385 140.88C136.505 140.88 146.105 126.8 146.105 100.88C146.105 74.8 136.665 60.72 119.545 60.72C102.425 60.72 93.145 74.96 93.145 101.04ZM69.625 101.04C69.625 64.4 88.985 41.52 119.545 41.52C150.265 41.52 169.465 64.4 169.465 100.88C169.465 137.36 150.425 160.08 119.545 160.08C88.825 160.08 69.625 137.36 69.625 101.04ZM201.114 101.04C201.114 126.96 210.234 140.88 227.354 140.88C244.474 140.88 254.074 126.8 254.074 100.88C254.074 74.8 244.634 60.72 227.514 60.72C210.394 60.72 201.114 74.96 201.114 101.04ZM177.594 101.04C177.594 64.4 196.954 41.52 227.514 41.52C258.234 41.52 277.434 64.4 277.434 100.88C277.434 137.36 258.394 160.08 227.514 160.08C196.794 160.08 177.594 137.36 177.594 101.04ZM283.003 158L313.403 113.68L284.123 70.96H308.603L328.602 101.36L348.123 70.96H373.083L343.963 113.84L374.203 158H349.723L328.923 125.68L307.963 158H283.003Z" fill="#31BF96"/>
<path d="M406 126.64V89.36H392.88V70.96H406V49.52H428.24V70.96H457.2V89.36H428.24V125.84C428.24 137.52 433.68 140.88 444.56 140.88C448.08 140.88 452.72 140.56 457.2 139.6V158C449.84 159.44 443.6 160.08 437.84 160.08C416.4 160.08 406 149.84 406 126.64ZM466.553 158V70.96H487.193L487.833 89.2C491.193 76.56 498.553 70.96 510.233 70.96H519.673V93.68H509.433C495.033 93.68 488.953 100.24 488.953 113.68V158H466.553ZM545.771 132.72C545.771 139.76 551.371 143.28 560.331 143.28C574.571 143.28 583.851 134.32 583.851 121.04V116.88L559.371 121.52C549.611 123.44 545.771 126.8 545.771 132.72ZM523.051 135.76C523.051 121.2 532.971 113.36 553.131 109.68L583.851 104.08V103.44C583.851 91.76 577.131 86 565.611 86C553.931 86 548.011 92.08 546.731 102.48H524.171C526.091 80.56 542.091 68.88 565.771 68.88C591.051 68.88 605.771 81.84 605.771 105.2V158H585.131L584.651 145.2C579.371 153.68 567.211 160.08 552.331 160.08C536.491 160.08 523.051 152.72 523.051 135.76ZM681.486 114.32C681.486 97.36 673.326 87.28 659.406 87.28C645.806 87.28 638.126 97.04 638.126 114.32C638.126 131.76 645.966 141.84 659.566 141.84C673.166 141.84 681.486 131.44 681.486 114.32ZM703.406 158H682.766L682.286 143.6C677.166 154.48 665.806 160.08 653.166 160.08C630.446 160.08 615.406 142 615.406 114.48C615.406 87.12 630.606 68.88 653.166 68.88C665.806 68.88 676.366 74.48 681.806 84.88V40.4H703.406V158ZM736.731 107.44H779.611C778.171 94.64 770.651 86.64 758.491 86.64C746.331 86.64 738.651 94.64 736.731 107.44ZM713.531 114.32C713.531 87.28 731.291 68.88 758.491 68.88C785.211 68.88 802.171 86.8 802.171 113.52V120.24H736.571C738.171 133.84 746.171 142.32 758.651 142.32C768.091 142.32 774.651 137.52 777.851 129.52H801.371C796.251 148.24 780.251 160.08 758.491 160.08C731.291 160.08 713.531 141.68 713.531 114.32ZM812.334 158V70.96H832.974L833.614 89.2C836.974 76.56 844.334 70.96 856.014 70.96H865.454V93.68H855.214C840.814 93.68 834.734 100.24 834.734 113.68V158H812.334Z" fill="white"/>
</svg>
