<svg width="860" height="202" viewBox="0 0 860 202" fill="none" xmlns="http://www.w3.org/2000/svg">
<path d="M64.3125 101.04C64.3125 91.8667 65.4858 83.6 67.8325 76.24C70.1792 68.88 73.4858 62.64 77.7525 57.52C82.1258 52.4 87.3525 48.4533 93.4325 45.68C99.6192 42.9067 106.553 41.52 114.233 41.52C121.913 41.52 128.846 42.9067 135.033 45.68C141.219 48.4533 146.446 52.4 150.712 57.52C155.086 62.64 158.393 68.88 160.633 76.24C162.979 83.6 164.153 91.8133 164.153 100.88C164.153 110.053 162.979 118.32 160.633 125.68C158.393 132.933 155.086 139.12 150.712 144.24C146.446 149.36 141.219 153.307 135.033 156.08C128.846 158.747 121.913 160.08 114.233 160.08C106.553 160.08 99.6192 158.747 93.4325 156.08C87.2458 153.307 82.0192 149.36 77.7525 144.24C73.4858 139.12 70.1792 132.933 67.8325 125.68C65.4858 118.32 64.3125 110.107 64.3125 101.04ZM87.8325 101.04C87.8325 107.547 88.3658 113.307 89.4325 118.32C90.6058 123.227 92.3125 127.387 94.5525 130.8C96.7925 134.107 99.5125 136.613 102.713 138.32C106.019 140.027 109.806 140.88 114.073 140.88C118.339 140.88 122.126 140.027 125.433 138.32C128.739 136.507 131.513 133.947 133.753 130.64C136.099 127.227 137.859 123.067 139.033 118.16C140.206 113.147 140.793 107.387 140.793 100.88C140.793 94.3733 140.206 88.6133 139.033 83.6C137.859 78.5867 136.153 74.4267 133.913 71.12C131.673 67.7067 128.899 65.1467 125.593 63.44C122.286 61.6267 118.499 60.72 114.233 60.72C109.966 60.72 106.179 61.6267 102.873 63.44C99.5658 65.1467 96.7925 67.7067 94.5525 71.12C92.3125 74.4267 90.6058 78.5867 89.4325 83.6C88.3658 88.6133 87.8325 94.4267 87.8325 101.04ZM172.281 101.04C172.281 91.8667 173.455 83.6 175.801 76.24C178.148 68.88 181.455 62.64 185.721 57.52C190.095 52.4 195.321 48.4533 201.401 45.68C207.588 42.9067 214.521 41.52 222.201 41.52C229.881 41.52 236.815 42.9067 243.001 45.68C249.188 48.4533 254.415 52.4 258.681 57.52C263.055 62.64 266.361 68.88 268.601 76.24C270.948 83.6 272.121 91.8133 272.121 100.88C272.121 110.053 270.948 118.32 268.601 125.68C266.361 132.933 263.055 139.12 258.681 144.24C254.415 149.36 249.188 153.307 243.001 156.08C236.815 158.747 229.881 160.08 222.201 160.08C214.521 160.08 207.588 158.747 201.401 156.08C195.215 153.307 189.988 149.36 185.721 144.24C181.455 139.12 178.148 132.933 175.801 125.68C173.455 118.32 172.281 110.107 172.281 101.04ZM195.801 101.04C195.801 107.547 196.335 113.307 197.401 118.32C198.575 123.227 200.281 127.387 202.521 130.8C204.761 134.107 207.481 136.613 210.681 138.32C213.988 140.027 217.775 140.88 222.041 140.88C226.308 140.88 230.095 140.027 233.401 138.32C236.708 136.507 239.481 133.947 241.721 130.64C244.068 127.227 245.828 123.067 247.001 118.16C248.175 113.147 248.761 107.387 248.761 100.88C248.761 94.3733 248.175 88.6133 247.001 83.6C245.828 78.5867 244.121 74.4267 241.881 71.12C239.641 67.7067 236.868 65.1467 233.561 63.44C230.255 61.6267 226.468 60.72 222.201 60.72C217.935 60.72 214.148 61.6267 210.841 63.44C207.535 65.1467 204.761 67.7067 202.521 71.12C200.281 74.4267 198.575 78.5867 197.401 83.6C196.335 88.6133 195.801 94.4267 195.801 101.04ZM277.69 158L308.09 113.68L278.81 70.96H303.29L323.29 101.52L342.81 70.96H367.77L338.65 113.84L368.89 158H344.41L323.61 125.68L302.65 158H277.69Z" fill="#58FF2A"/>
<path d="M399 126.64V89.36H385.88V70.96H399V49.52H421.4V70.96H450.36V89.36H421.4V125.84C421.4 128.72 421.72 131.173 422.36 133.2C423 135.12 424.013 136.667 425.4 137.84C426.787 138.907 428.493 139.707 430.52 140.24C432.547 140.667 434.947 140.88 437.72 140.88C439.533 140.88 441.507 140.827 443.64 140.72C445.773 140.507 448.013 140.187 450.36 139.76V158C446.627 158.747 443.16 159.28 439.96 159.6C436.76 159.92 433.773 160.08 431 160.08C425.56 160.08 420.813 159.44 416.76 158.16C412.813 156.88 409.507 154.907 406.84 152.24C404.173 149.467 402.2 145.947 400.92 141.68C399.64 137.413 399 132.4 399 126.64ZM459.553 158V70.96H480.033L480.673 89.2C482.486 82.8 485.206 78.16 488.833 75.28C492.566 72.4 497.313 70.96 503.073 70.96H512.513V93.68H502.273C498.753 93.68 495.659 94.1067 492.993 94.96C490.433 95.8133 488.299 97.0933 486.593 98.8C484.993 100.4 483.766 102.48 482.913 105.04C482.166 107.493 481.793 110.427 481.793 113.84V158H459.553ZM516.051 135.76C516.051 128.507 518.558 122.8 523.571 118.64C528.585 114.48 536.105 111.493 546.131 109.68L576.851 104.08V103.44C576.851 97.5733 575.251 93.2 572.051 90.32C568.851 87.44 564.371 86 558.611 86C552.745 86 548.265 87.44 545.171 90.32C542.185 93.2 540.371 97.2533 539.731 102.48H517.171C517.705 97.04 519.038 92.24 521.171 88.08C523.411 83.8133 526.291 80.2933 529.811 77.52C533.438 74.64 537.705 72.5067 542.611 71.12C547.518 69.6267 552.905 68.88 558.771 68.88C571.571 68.88 581.438 72.0267 588.371 78.32C595.305 84.5067 598.771 93.4667 598.771 105.2V158H578.131L577.651 145.2C576.371 147.333 574.665 149.307 572.531 151.12C570.398 152.933 567.945 154.533 565.171 155.92C562.398 157.2 559.305 158.213 555.891 158.96C552.585 159.707 549.065 160.08 545.331 160.08C541.385 160.08 537.598 159.6 533.971 158.64C530.451 157.68 527.358 156.24 524.691 154.32C522.025 152.293 519.891 149.733 518.291 146.64C516.798 143.547 516.051 139.92 516.051 135.76ZM538.931 132.72C538.931 136.24 540.211 138.907 542.771 140.72C545.331 142.427 548.798 143.28 553.171 143.28C556.798 143.28 560.051 142.747 562.931 141.68C565.918 140.613 568.425 139.12 570.451 137.2C572.478 135.28 574.025 132.933 575.091 130.16C576.265 127.387 576.851 124.347 576.851 121.04V116.88L552.371 121.52C547.465 122.48 543.998 123.867 541.971 125.68C539.945 127.387 538.931 129.733 538.931 132.72ZM696.406 158H675.766L675.286 143.6C672.726 149.04 668.833 153.147 663.606 155.92C658.38 158.693 652.566 160.08 646.166 160.08C640.513 160.08 635.34 159.013 630.646 156.88C626.06 154.747 622.113 151.707 618.806 147.76C615.5 143.707 612.94 138.853 611.126 133.2C609.313 127.547 608.406 121.307 608.406 114.48C608.406 107.653 609.313 101.467 611.126 95.92C612.94 90.2667 615.5 85.4667 618.806 81.52C622.113 77.4667 626.06 74.3733 630.646 72.24C635.34 70 640.513 68.88 646.166 68.88C652.566 68.88 658.22 70.2667 663.126 73.04C668.14 75.8133 672.033 79.76 674.806 84.88V40.4H696.406V158ZM674.486 114.32C674.486 110.053 673.953 106.267 672.886 102.96C671.926 99.6533 670.486 96.8267 668.566 94.48C666.753 92.1333 664.46 90.3733 661.686 89.2C659.02 87.92 655.926 87.28 652.406 87.28C648.993 87.28 645.953 87.8667 643.286 89.04C640.726 90.2133 638.486 91.9733 636.566 94.32C634.753 96.6667 633.366 99.5467 632.406 102.96C631.553 106.267 631.126 110.053 631.126 114.32C631.126 118.693 631.553 122.587 632.406 126C633.366 129.413 634.753 132.293 636.566 134.64C638.486 136.88 640.78 138.64 643.446 139.92C646.113 141.093 649.1 141.68 652.406 141.68C655.926 141.68 659.02 141.093 661.686 139.92C664.46 138.64 666.753 136.827 668.566 134.48C670.486 132.133 671.926 129.253 672.886 125.84C673.953 122.427 674.486 118.587 674.486 114.32ZM706.531 114.48C706.531 107.653 707.598 101.467 709.731 95.92C711.865 90.2667 714.851 85.4667 718.691 81.52C722.638 77.4667 727.385 74.3733 732.931 72.24C738.478 70 744.665 68.88 751.491 68.88C758.211 68.88 764.238 69.9467 769.571 72.08C775.011 74.2133 779.598 77.2533 783.331 81.2C787.171 85.04 790.105 89.7333 792.131 95.28C794.158 100.72 795.171 106.8 795.171 113.52V120.24H729.571C729.998 123.547 730.798 126.587 731.971 129.36C733.145 132.133 734.638 134.48 736.451 136.4C738.371 138.32 740.611 139.813 743.171 140.88C745.731 141.84 748.558 142.32 751.651 142.32C753.998 142.32 756.131 142.053 758.051 141.52C760.078 140.987 761.891 140.187 763.491 139.12C765.091 137.947 766.478 136.56 767.651 134.96C768.931 133.36 769.998 131.547 770.851 129.52H794.371C791.811 138.907 786.745 146.373 779.171 151.92C771.705 157.36 762.478 160.08 751.491 160.08C744.665 160.08 738.478 159.013 732.931 156.88C727.385 154.64 722.638 151.493 718.691 147.44C714.851 143.387 711.865 138.587 709.731 133.04C707.598 127.493 706.531 121.307 706.531 114.48ZM729.731 107.44H772.611C772.291 104.24 771.545 101.36 770.371 98.8C769.305 96.24 767.865 94.0533 766.051 92.24C764.345 90.4267 762.265 89.04 759.811 88.08C757.358 87.12 754.585 86.64 751.491 86.64C748.398 86.64 745.625 87.12 743.171 88.08C740.825 89.04 738.691 90.4267 736.771 92.24C734.958 94.0533 733.465 96.24 732.291 98.8C731.118 101.36 730.265 104.24 729.731 107.44ZM805.334 158V70.96H825.814L826.454 89.2C828.267 82.8 830.987 78.16 834.614 75.28C838.347 72.4 843.094 70.96 848.854 70.96H858.294V93.68H848.054C844.534 93.68 841.44 94.1067 838.774 94.96C836.214 95.8133 834.08 97.0933 832.374 98.8C830.774 100.4 829.547 102.48 828.694 105.04C827.947 107.493 827.574 110.427 827.574 113.84V158H805.334Z" fill="white"/>
<rect x="41.5" y="94.5" width="29" height="60" transform="rotate(-180 41.5 94.5)" fill="#58FF2A" stroke="#58FF2A"/>
<line x1="28" y1="95" x2="28" y2="168" stroke="#58FF2A" stroke-width="4"/>
</svg>
